<svg width="108" height="40" viewBox="0 0 108 40" fill="none" xmlns="http://www.w3.org/2000/svg">
<path d="M7.03632 26.6117H0V25.7683H1.40958V25.4852H1.69265V25.2021H1.97571V24.9191H2.25879V15.6355H1.97571V15.3525H1.69265V15.0694H1.13228V14.7863H0.571917V14.5032H0.0115564V14.2202H1.13806V13.9371H1.98149V13.654H3.108V13.371H4.2345V13.0879H4.79487V15.3409H4.51179V16.1843H4.22872V17.3108H4.51179V16.7505H4.79487V16.1901H5.07794V15.6297H5.36101V15.3467H5.64408V14.7863H5.92715V14.5032H6.21022V14.2202H6.49329V13.9371H6.77636V13.654H7.33673V13.371H7.89709V13.0879H10.1501V13.371H10.4332V13.654H10.7162V13.9371H10.9993V14.2202H11.2824V15.6297H10.9993V16.1901H10.7162V16.4732H10.1559V16.7563H9.02937V16.4732H8.46901V16.1901H8.18593V14.7863H8.7463V14.2259H7.61979V14.509H7.05943V14.7921H6.77636V15.0752H6.49329V15.3582H6.21022V15.6413H5.92715V15.9244H5.64408V16.2074H5.36101V16.7678H5.07794V17.3282H4.79487V24.6418H5.07794V25.2021H5.36101V25.4852H5.64408V25.7683H7.04788V26.6117H7.03632Z" fill="#1F1F1F"/>
<path d="M13.5072 19.0151V19.5755H14.6337V21.5454H14.9168V22.3889H15.1998V22.9492H15.4829V23.5096H15.766V23.7927H16.049V24.0757H16.3321V24.3588H16.6152V24.6419H17.1755V24.9249H18.019V25.208H19.7058V24.9249H20.8323V24.6419H21.3927V24.3588H21.6758V24.0757H21.9588V23.7927H22.2419V23.5096H22.525V23.2265H22.8081V22.6662H23.0911V23.2265H22.8081V24.0699H22.525V24.6303H22.2419V24.9134H21.9588V25.1965H21.6758V25.4795H21.3927V25.7626H21.1096V26.0457H20.8266V26.3287H20.2662V26.6118H19.4228V26.8949H16.8925V26.6118H15.766V26.3287H15.2056V26.0457H14.6452V25.7626H14.0849V25.4795H13.8018V25.1965H13.5187V24.9134H13.2357V24.6303H12.9526V24.0699H12.6695V23.5096H12.3865V22.9492H12.1034V22.1058H11.8203V18.449H12.1034V17.6055H12.3865V16.7621H12.6695V16.2017H12.9526V15.9187H13.2357V15.3583H13.5187V15.0752H13.8018V14.7922H14.0849V14.5091H14.3679V14.226H14.9283V13.943H15.2114V13.6599H15.7717V13.3768H16.6152V13.0938H19.1455V13.3768H19.9889V13.6599H20.5493V13.943H21.1096V14.226H21.3927V14.5091H21.6758V14.7922H21.9588V15.0752H22.2419V15.6356H22.525V15.9187H22.8081V16.7621H23.0911V18.1659H23.3742V19.0093H13.5245L13.5072 19.0151ZM20.5435 18.1717V17.0452H20.2604V15.9187H19.9774V15.3583H19.6943V15.0752H19.4112V14.7922H19.1281V14.5091H18.5678V14.226H16.8809V14.5091H16.3206V14.7922H15.7602V15.3525H15.4771V15.6356H15.1941V16.196H14.911V17.3225H14.6279V18.1659H20.5377L20.5435 18.1717Z" fill="#1F1F1F"/>
<path d="M54.5046 24.0814H54.2215V24.3645H53.9384V24.9249H53.6554V25.2079H53.3723V25.491H53.0892V25.7741H52.8062V26.0571H52.2458V26.3402H51.6854V26.6233H51.1251V26.9064H48.8721V26.6233H47.7456V26.3402H47.1852V26.0571H46.9021V25.7741H46.6191V25.491H46.336V25.2079H46.0529V24.9249H45.7698V24.6418H45.4868V24.0814H45.2037V23.5211H44.9206V22.9607H44.6376V21.5569H44.3545V19.587H44.6376V18.1774H44.9206V17.3339H45.2037V16.7736H45.4868V16.2132H45.7698V15.9302H46.0529V15.3698H46.336V15.0867H46.6191V14.8036H46.9021V14.5206H47.1852V14.2375H47.7456V13.9544H48.3059V13.6714H48.8663V13.3883H49.7097V13.1052H52.5231V13.3883H53.6496V13.6714H54.21V13.9544H55.0534V13.6714H55.6138V13.3883H56.1741V13.1052H56.7345V31.112H57.0176V31.6723H57.3006V31.9554H57.5837V32.2385H58.9933V33.0819H51.957V32.2385H53.3608V31.9554H53.6438V31.6723H53.9269V31.3893H54.21V24.9191H54.493V24.636H54.7761V24.0756H55.0592V23.2322H54.7761V23.7926H54.493V24.0756L54.5046 24.0814ZM51.6912 25.2079V24.9249H52.2516V24.6418H52.8119V24.3587H53.3723V24.0756H53.6554V23.7926H53.9384V23.2322H54.2215V15.0752H53.6612V14.7921H53.1008V14.509H52.5404V14.2259H50.2874V14.509H49.7271V14.7921H49.1667V15.0752H48.8836V15.3582H48.6006V15.6413H48.3175V15.9244H48.0344V16.4847H47.7513V17.0451H47.4683V18.1716H47.1852V21.268H47.4683V22.3946H47.7513V22.9549H48.0344V23.5153H48.3175V23.7984H48.6006V24.0814H48.8836V24.3645H49.1667V24.6476H49.7271V24.9306H50.5705V25.2137H51.697L51.6912 25.2079Z" fill="#1F1F1F"/>
<path d="M63.5115 23.521H63.7946V24.0813H64.0776V24.6417H64.638V24.9248H65.1984V25.2078H66.6022V24.9248H67.4456V24.6417H68.006V24.3586H68.289V24.0756H68.5721V23.7925H68.8552V23.5094H69.1383V15.6297H68.8552V15.3466H68.5721V15.0635H68.0117V14.7805H67.4514V14.4974H66.891V14.2143H67.7344V13.9312H68.861V13.6482H69.9875V13.3651H71.114V13.082H71.6743V24.6186H71.9574V25.179H72.5178V25.462H73.0781V25.7451H73.6385V26.0282H73.3554V26.3112H71.3855V26.5943H69.4155V26.8774H69.1325V24.9074H69.4155V24.6244H69.6986V24.3413H69.9817V23.4979H69.6986V23.7809H69.4155V24.064H69.1325V24.6244H68.8494V24.9074H68.5663V25.1905H68.2833V25.4736H68.0002V25.7567H67.4398V26.0397H67.1568V26.3228H66.5964V26.6059H65.753V26.8889H63.4999V26.6059H62.6565V26.3228H62.3734V26.0397H62.0904V25.7567H61.8073V25.4736H61.5242V25.1905H61.2412V24.6301H60.9581V16.4731H60.675V15.3466H60.1147V15.0635H59.8316V14.7805H58.9882V14.4974H58.7051V14.2143H59.5485V13.9312H60.675V13.6482H61.8015V13.3651H62.928V13.082H63.4884V23.4921L63.5115 23.521Z" fill="#1F1F1F"/>
<path d="M77.0189 19.0151V19.5755H78.1454V21.5454H78.4285V22.3889H78.7115V22.9492H78.9946V23.5096H79.2777V23.7927H79.5608V24.0757H79.8438V24.3588H80.1269V24.6419H80.6873V24.9249H81.5307V25.208H83.2176V24.9249H84.3441V24.6419H84.9044V24.3588H85.1875V24.0757H85.4706V23.7927H85.7536V23.5096H86.0367V23.2265H86.3198V22.6662H86.6029V23.2265H86.3198V24.0699H86.0367V24.6303H85.7536V24.9134H85.4706V25.1965H85.1875V25.4795H84.9044V25.7626H84.6214V26.0457H84.3383V26.3287H83.7779V26.6118H82.9345V26.8949H80.4042V26.6118H79.2777V26.3287H78.7173V26.0457H78.157V25.7626H77.5966V25.4795H77.3135V25.1965H77.0305V24.9134H76.7474V24.6303H76.4643V24.0699H76.1812V23.5096H75.8982V22.9492H75.6151V22.1058H75.332V18.449H75.6151V17.6055H75.8982V16.7621H76.1812V16.2017H76.4643V15.9187H76.7474V15.3583H77.0305V15.0752H77.3135V14.7922H77.5966V14.5091H77.8797V14.226H78.44V13.943H78.7231V13.6599H79.2835V13.3768H80.1269V13.0938H82.6572V13.3768H83.5006V13.6599H84.061V13.943H84.6214V14.226H84.9044V14.5091H85.1875V14.7922H85.4706V15.0752H85.7536V15.6356H86.0367V15.9187H86.3198V16.7621H86.6029V18.1659H86.8859V19.0093H77.0362L77.0189 19.0151ZM84.0552 18.1717V17.0452H83.7722V15.9187H83.4891V15.3583H83.206V15.0752H82.9229V14.7922H82.6399V14.5091H82.0795V14.226H80.3926V14.5091H79.8323V14.7922H79.2719V15.3525H78.9888V15.6356H78.7058V16.196H78.4227V17.3225H78.1396V18.1659H84.0494L84.0552 18.1717Z" fill="#1F1F1F"/>
<path d="M89.1199 26.8948H88.5596V21.8284H89.6861V22.3888H89.9691V22.9491H90.2522V23.5095H90.5353V24.0699H90.8184V24.3529H91.1014V24.636H91.3845V24.9191H91.9449V25.2021H92.2279V25.4852H95.3244V25.2021H95.6074V24.9191H95.8905V24.636H96.1736V24.0756H96.4567V23.2322H96.1736V22.6718H95.8905V22.3888H95.6074V22.1057H95.3244V21.8226H94.764V21.5396H93.9206V21.2565H93.0771V20.9734H92.5168V20.6904H91.6733V20.4073H91.113V20.1242H90.5526V19.8411H90.2695V19.5581H89.7092V19.275H89.4261V18.7146H89.143V18.1543H88.86V15.624H89.143V15.0636H89.4261V14.7805H89.7092V14.2202H89.9923V13.9371H90.5526V13.654H90.8357V13.371H91.9622V13.0879H93.6491V13.371H94.4925V13.654H95.0529V13.9371H95.6132V14.2202H95.8963V14.5032H96.1794V14.7863H96.4624V15.0694H96.7455V14.2259H96.4624V13.9429H96.1794V13.6598H96.4624V13.3767H97.0228V13.0937H97.8662V17.877H96.7397V17.5939H96.4567V16.7505H96.1736V16.1901H95.8905V15.907H95.6074V15.624H95.3244V15.3409H95.0413V15.0578H94.7582V14.7748H94.4752V14.4917H93.6317V14.2086H92.5052V14.4917H91.6618V14.7748H91.3787V15.0578H91.0956V15.6182H90.8126V16.4616H91.0956V17.022H91.3787V17.5824H91.9391V17.8654H92.2222V18.1485H93.0656V18.4316H93.626V18.7146H94.4694V18.9977H95.0297V19.2808H95.8732V19.5638H96.4335V19.8469H96.9939V20.13H97.277V20.4131H97.5601V20.6961H97.8431V20.9792H98.1262V21.8226H98.4093V23.7926H98.1262V24.636H97.8431V24.9191H97.5601V25.4794H97.277V25.7625H96.9939V26.0456H96.4335V26.3287H95.8732V26.6117H95.0297V26.8948H93.0598V26.6117H92.2164V26.3287H91.656V26.0456H91.0956V25.7625H90.8126V25.4794H90.5295V25.1964H90.2464V24.9133H89.9634V24.6302H89.6803V25.4737H89.9634V25.7567H90.2464V26.0398H90.5295V26.3229H89.6861V26.6059H89.1257V26.889L89.1199 26.8948Z" fill="#1F1F1F"/>
<path d="M104.031 24.0813H104.315V24.6417H104.598V24.9247H106.568V24.6417H107.128V24.3586H107.411V24.0755H107.694V24.6359H107.411V25.1963H107.128V25.4793H106.845V26.0397H106.285V26.3228H106.001V26.6058H105.158V26.8889H103.471V26.6058H102.911V26.3228H102.35V26.0397H102.067V25.4793H101.784V24.6359H101.501V14.5089H99.5312V14.2258H99.8143V13.9428H100.097V13.6597H100.38V13.3766H100.664V13.0936H100.947V12.8105H101.23V12.5274H101.513V12.2443H101.796V11.9613H102.079V11.6782H102.362V11.1178H102.645V10.8348H102.928V10.5517H103.211V9.99133H103.494V9.43097H103.777V8.87061H104.06V13.3708H108V14.4973H103.217V15.0577H104.06V24.064L104.031 24.0813ZM107.688 23.7982V23.5152H107.971V23.7982H107.688Z" fill="#1F1F1F"/>
<path d="M29.2607 17.8711H33.5184V5.09831H37.776V0.840698H42.0336V5.09831H37.776V17.8711H33.5184V22.1287H37.776V34.9016H42.0336V39.1592H37.776V34.9016H33.5184V22.1287H29.2607V17.8711Z" fill="#1F1F1F"/>
</svg>
