<?xml version="1.0" encoding="UTF-8"?>
<svg id="uuid-8e0d82e9-f32e-4c97-9867-7b5b14e4b697" data-name="BG" xmlns="http://www.w3.org/2000/svg" viewBox="0 0 367.2 206.45">
  <path d="M143.68,97.16h7.37s0-22.11,0-22.11h7.37s0-7.37,0-7.37h7.37v7.37h-7.37s0,22.11,0,22.11h-7.37s0,7.37,0,7.37h7.37v22.11s7.37,0,7.37,0v7.37h-7.37v-7.37s-7.37,0-7.37,0v-22.11s-7.37,0-7.37,0v-7.37Z"/>
  <g>
    <path d="M105.21,112.29h-12.18v-1.46h2.44v-.49h.49v-.49h.49v-.49h.49v-16.07h-.49v-.49h-.49v-.49h-.97v-.49h-.97v-.49h-.97v-.49h1.95v-.49h1.46v-.49h1.95v-.49h1.95v-.49h.97v3.9h-.49v1.46h-.49v1.95h.49v-.97h.49v-.97h.49v-.97h.49v-.49h.49v-.97h.49v-.49h.49v-.49h.49v-.49h.49v-.49h.97v-.49h.97v-.49h3.9v.49h.49v.49h.49v.49h.49v.49h.49v2.44h-.49v.97h-.49v.49h-.97v.49h-1.95v-.49h-.97v-.49h-.49v-2.43h.97v-.97h-1.95v.49h-.97v.49h-.49v.49h-.49v.49h-.49v.49h-.49v.49h-.49v.49h-.49v.97h-.49v.97h-.49v12.66h.49v.97h.49v.49h.49v.49h2.43v1.46Z"/>
    <path d="M116.41,99.14v.97h1.95v3.41h.49v1.46h.49v.97h.49v.97h.49v.49h.49v.49h.49v.49h.49v.49h.97v.49h1.46v.49h2.92v-.49h1.95v-.49h.97v-.49h.49v-.49h.49v-.49h.49v-.49h.49v-.49h.49v-.97h.49v.97h-.49v1.46h-.49v.97h-.49v.49h-.49v.49h-.49v.49h-.49v.49h-.49v.49h-.49v.49h-.97v.49h-1.46v.49h-4.38v-.49h-1.95v-.49h-.97v-.49h-.97v-.49h-.97v-.49h-.49v-.49h-.49v-.49h-.49v-.49h-.49v-.97h-.49v-.97h-.49v-.97h-.49v-1.46h-.49v-6.33h.49v-1.46h.49v-1.46h.49v-.97h.49v-.49h.49v-.97h.49v-.49h.49v-.49h.49v-.49h.49v-.49h.97v-.49h.49v-.49h.97v-.49h1.46v-.49h4.38v.49h1.46v.49h.97v.49h.97v.49h.49v.49h.49v.49h.49v.49h.49v.97h.49v.49h.49v1.46h.49v2.43h.49v1.46h-17.05ZM128.59,97.68v-1.95h-.49v-1.95h-.49v-.97h-.49v-.49h-.49v-.49h-.49v-.49h-.97v-.49h-2.92v.49h-.97v.49h-.97v.97h-.49v.49h-.49v.97h-.49v1.95h-.49v1.46h10.23Z"/>
    <path d="M187.38,107.91h-.49v.49h-.49v.97h-.49v.49h-.49v.49h-.49v.49h-.49v.49h-.97v.49h-.97v.49h-.97v.49h-3.9v-.49h-1.95v-.49h-.97v-.49h-.49v-.49h-.49v-.49h-.49v-.49h-.49v-.49h-.49v-.49h-.49v-.97h-.49v-.97h-.49v-.97h-.49v-2.43h-.49v-3.41h.49v-2.44h.49v-1.46h.49v-.97h.49v-.97h.49v-.49h.49v-.97h.49v-.49h.49v-.49h.49v-.49h.49v-.49h.97v-.49h.97v-.49h.97v-.49h1.46v-.49h4.87v.49h1.95v.49h.97v.49h1.46v-.49h.97v-.49h.97v-.49h.97v31.17h.49v.97h.49v.49h.49v.49h2.44v1.46h-12.18v-1.46h2.43v-.49h.49v-.49h.49v-.49h.49v-11.2h.49v-.49h.49v-.97h.49v-1.46h-.49v.97h-.49v.49ZM182.51,109.86v-.49h.97v-.49h.97v-.49h.97v-.49h.49v-.49h.49v-.97h.49v-14.12h-.97v-.49h-.97v-.49h-.97v-.49h-3.9v.49h-.97v.49h-.97v.49h-.49v.49h-.49v.49h-.49v.49h-.49v.97h-.49v.97h-.49v1.95h-.49v5.36h.49v1.95h.49v.97h.49v.97h.49v.49h.49v.49h.49v.49h.49v.49h.97v.49h1.46v.49h1.95Z"/>
    <path d="M202.97,106.94h.49v.97h.49v.97h.97v.49h.97v.49h2.43v-.49h1.46v-.49h.97v-.49h.49v-.49h.49v-.49h.49v-.49h.49v-13.64h-.49v-.49h-.49v-.49h-.97v-.49h-.97v-.49h-.97v-.49h1.46v-.49h1.95v-.49h1.95v-.49h1.95v-.49h.97v19.97h.49v.97h.97v.49h.97v.49h.97v.49h-.49v.49h-3.41v.49h-3.41v.49h-.49v-3.41h.49v-.49h.49v-.49h.49v-1.46h-.49v.49h-.49v.49h-.49v.97h-.49v.49h-.49v.49h-.49v.49h-.49v.49h-.97v.49h-.49v.49h-.97v.49h-1.46v.49h-3.9v-.49h-1.46v-.49h-.49v-.49h-.49v-.49h-.49v-.49h-.49v-.49h-.49v-.97h-.49v-14.12h-.49v-1.95h-.97v-.49h-.49v-.49h-1.46v-.49h-.49v-.49h1.46v-.49h1.95v-.49h1.95v-.49h1.95v-.49h.97v18.02Z"/>
    <path d="M226.35,99.14v.97h1.95v3.41h.49v1.46h.49v.97h.49v.97h.49v.49h.49v.49h.49v.49h.49v.49h.97v.49h1.46v.49h2.92v-.49h1.95v-.49h.97v-.49h.49v-.49h.49v-.49h.49v-.49h.49v-.49h.49v-.97h.49v.97h-.49v1.46h-.49v.97h-.49v.49h-.49v.49h-.49v.49h-.49v.49h-.49v.49h-.49v.49h-.97v.49h-1.46v.49h-4.38v-.49h-1.95v-.49h-.97v-.49h-.97v-.49h-.97v-.49h-.49v-.49h-.49v-.49h-.49v-.49h-.49v-.97h-.49v-.97h-.49v-.97h-.49v-1.46h-.49v-6.33h.49v-1.46h.49v-1.46h.49v-.97h.49v-.49h.49v-.97h.49v-.49h.49v-.49h.49v-.49h.49v-.49h.97v-.49h.49v-.49h.97v-.49h1.46v-.49h4.38v.49h1.46v.49h.97v.49h.97v.49h.49v.49h.49v.49h.49v.49h.49v.97h.49v.49h.49v1.46h.49v2.43h.49v1.46h-17.05ZM238.53,97.68v-1.95h-.49v-1.95h-.49v-.97h-.49v-.49h-.49v-.49h-.49v-.49h-.97v-.49h-2.92v.49h-.97v.49h-.97v.97h-.49v.49h-.49v.97h-.49v1.95h-.49v1.46h10.23Z"/>
    <path d="M247.3,112.78h-.97v-8.77h1.95v.97h.49v.97h.49v.97h.49v.97h.49v.49h.49v.49h.49v.49h.97v.49h.49v.49h5.36v-.49h.49v-.49h.49v-.49h.49v-.97h.49v-1.46h-.49v-.97h-.49v-.49h-.49v-.49h-.49v-.49h-.97v-.49h-1.46v-.49h-1.46v-.49h-.97v-.49h-1.46v-.49h-.97v-.49h-.97v-.49h-.49v-.49h-.97v-.49h-.49v-.97h-.49v-.97h-.49v-4.38h.49v-.97h.49v-.49h.49v-.97h.49v-.49h.97v-.49h.49v-.49h1.95v-.49h2.92v.49h1.46v.49h.97v.49h.97v.49h.49v.49h.49v.49h.49v.49h.49v-1.46h-.49v-.49h-.49v-.49h.49v-.49h.97v-.49h1.46v8.28h-1.95v-.49h-.49v-1.46h-.49v-.97h-.49v-.49h-.49v-.49h-.49v-.49h-.49v-.49h-.49v-.49h-.49v-.49h-1.46v-.49h-1.95v.49h-1.46v.49h-.49v.49h-.49v.97h-.49v1.46h.49v.97h.49v.97h.97v.49h.49v.49h1.46v.49h.97v.49h1.46v.49h.97v.49h1.46v.49h.97v.49h.97v.49h.49v.49h.49v.49h.49v.49h.49v1.46h.49v3.41h-.49v1.46h-.49v.49h-.49v.97h-.49v.49h-.49v.49h-.97v.49h-.97v.49h-1.46v.49h-3.41v-.49h-1.46v-.49h-.97v-.49h-.97v-.49h-.49v-.49h-.49v-.49h-.49v-.49h-.49v-.49h-.49v1.46h.49v.49h.49v.49h.49v.49h-1.46v.49h-.97v.49Z"/>
    <path d="M273.11,107.91h.49v.97h.49v.49h3.41v-.49h.97v-.49h.49v-.49h.49v.97h-.49v.97h-.49v.49h-.49v.97h-.97v.49h-.49v.49h-1.46v.49h-2.92v-.49h-.97v-.49h-.97v-.49h-.49v-.97h-.49v-1.46h-.49v-17.53h-3.41v-.49h.49v-.49h.49v-.49h.49v-.49h.49v-.49h.49v-.49h.49v-.49h.49v-.49h.49v-.49h.49v-.49h.49v-.97h.49v-.49h.49v-.49h.49v-.97h.49v-.97h.49v-.97h.49v7.79h6.82v1.95h-8.28v.97h1.46v15.59ZM279.44,107.42v-.49h.49v.49h-.49Z"/>
  </g>
</svg>