<svg width="27" height="28" viewBox="0 0 27 28" fill="none" xmlns="http://www.w3.org/2000/svg">
<circle cx="13.5" cy="14" r="13.5" fill="#D3DFD5"/>
<path d="M12.5084 16.8333C12.5084 15.8771 12.594 15.1894 12.7652 14.7703C12.9364 14.3512 13.2994 13.8938 13.8542 13.3979C14.3383 12.9729 14.7072 12.604 14.961 12.2911C15.2148 11.9783 15.3417 11.6212 15.3417 11.2198C15.3417 10.7358 15.1794 10.3344 14.8548 10.0156C14.5301 9.69688 14.0785 9.5375 13.5001 9.5375C12.898 9.5375 12.4405 9.72049 12.1277 10.0865C11.8148 10.4524 11.5935 10.8243 11.4636 11.2021L9.63965 10.4229C9.88757 9.66736 10.3421 9.01215 11.0032 8.45729C11.6643 7.90243 12.4966 7.625 13.5001 7.625C14.7396 7.625 15.6929 7.97031 16.36 8.66094C17.027 9.35156 17.3605 10.1809 17.3605 11.149C17.3605 11.7392 17.2336 12.2439 16.9798 12.663C16.7259 13.0821 16.3275 13.5573 15.7844 14.0885C15.206 14.6434 14.8548 15.0655 14.7308 15.3547C14.6068 15.6439 14.5449 16.1368 14.5449 16.8333H12.5084ZM13.5001 21.0833C13.1105 21.0833 12.777 20.9446 12.4995 20.6672C12.2221 20.3898 12.0834 20.0562 12.0834 19.6667C12.0834 19.2771 12.2221 18.9436 12.4995 18.6661C12.777 18.3887 13.1105 18.25 13.5001 18.25C13.8896 18.25 14.2232 18.3887 14.5006 18.6661C14.778 18.9436 14.9167 19.2771 14.9167 19.6667C14.9167 20.0562 14.778 20.3898 14.5006 20.6672C14.2232 20.9446 13.8896 21.0833 13.5001 21.0833Z" fill="#1F1F1F"/>
</svg>
