<svg width="24" height="24" viewBox="0 0 24 24" fill="none" xmlns="http://www.w3.org/2000/svg">
<path d="M11.3289 16.25H12.6711V11.1053H11.3289V16.25ZM12 9.57392C12.2047 9.57392 12.3764 9.50465 12.5149 9.36612C12.6535 9.22758 12.7227 9.05594 12.7227 8.8512C12.7227 8.64645 12.6535 8.47481 12.5149 8.33628C12.3764 8.19789 12.2047 8.1287 12 8.1287C11.7953 8.1287 11.6236 8.19789 11.4851 8.33628C11.3465 8.47481 11.2773 8.64645 11.2773 8.8512C11.2773 9.05594 11.3465 9.22758 11.4851 9.36612C11.6236 9.50465 11.7953 9.57392 12 9.57392ZM12.0016 20.5C10.8259 20.5 9.72081 20.2769 8.68634 19.8307C7.65188 19.3846 6.75207 18.779 5.98692 18.0142C5.22177 17.2493 4.61596 16.3499 4.16949 15.3159C3.72316 14.2819 3.5 13.1771 3.5 12.0016C3.5 10.8259 3.72309 9.72081 4.16926 8.68634C4.61544 7.65188 5.22095 6.75207 5.9858 5.98692C6.75065 5.22177 7.65009 4.61596 8.68411 4.16949C9.71812 3.72316 10.8229 3.5 11.9984 3.5C13.1741 3.5 14.2792 3.72309 15.3137 4.16926C16.3481 4.61544 17.2479 5.22095 18.0131 5.9858C18.7782 6.75065 19.384 7.65009 19.8305 8.68411C20.2768 9.71812 20.5 10.8229 20.5 11.9984C20.5 13.1741 20.2769 14.2792 19.8307 15.3137C19.3846 16.3481 18.779 17.2479 18.0142 18.0131C17.2493 18.7782 16.3499 19.384 15.3159 19.8305C14.2819 20.2768 13.1771 20.5 12.0016 20.5ZM12 19.1579C13.9982 19.1579 15.6908 18.4645 17.0776 17.0776C18.4645 15.6908 19.1579 13.9982 19.1579 12C19.1579 10.0018 18.4645 8.30921 17.0776 6.92237C15.6908 5.53553 13.9982 4.84211 12 4.84211C10.0018 4.84211 8.30921 5.53553 6.92237 6.92237C5.53553 8.30921 4.84211 10.0018 4.84211 12C4.84211 13.9982 5.53553 15.6908 6.92237 17.0776C8.30921 18.4645 10.0018 19.1579 12 19.1579Z" fill="#1F1F1F"/>
</svg>
