<svg width="20" height="20" viewBox="0 0 20 20" fill="none" xmlns="http://www.w3.org/2000/svg">
<path d="M9.125 18C7.36042 17.7832 5.89844 17.0208 4.73906 15.7127C3.57969 14.4047 3 12.869 3 11.1057C3 10.1518 3.18958 9.23758 3.56875 8.36314C3.94792 7.48871 4.4875 6.72629 5.1875 6.07588L6.43438 7.31165C5.88021 7.80307 5.46094 8.37398 5.17656 9.02439C4.89219 9.6748 4.75 10.3686 4.75 11.1057C4.75 12.3776 5.15833 13.5014 5.975 14.477C6.79167 15.4526 7.84167 16.0488 9.125 16.2656V18ZM10.875 18V16.2656C12.1438 16.0343 13.1901 15.4345 14.0141 14.4661C14.838 13.4977 15.25 12.3776 15.25 11.1057C15.25 9.66034 14.7396 8.4318 13.7188 7.42005C12.6979 6.40831 11.4583 5.90244 10 5.90244H9.93438L10.8969 6.85637L9.67188 8.07046L6.60938 5.03523L9.67188 2L10.8969 3.21409L9.93438 4.16802H10C11.9542 4.16802 13.6094 4.84011 14.9656 6.18428C16.3219 7.52846 17 9.16892 17 11.1057C17 12.8546 16.4203 14.383 15.2609 15.6911C14.1016 16.9991 12.6396 17.7687 10.875 18Z" fill="#1F1F1F"/>
</svg>
