<svg width="30" height="18" viewBox="0 0 30 18" fill="none" xmlns="http://www.w3.org/2000/svg">
<g clip-path="url(#clip0_392_836)">
<path d="M18.9004 6.325C18.7104 6.045 18.4804 5.845 18.2104 5.705C17.9404 5.565 17.6304 5.495 17.2804 5.495C16.9304 5.495 16.6204 5.565 16.3504 5.705C16.0804 5.845 15.8604 6.045 15.6704 6.325C15.4904 6.605 15.3504 6.945 15.2504 7.345C15.1504 7.745 15.1104 8.215 15.1104 8.755V9.245C15.1104 9.775 15.1604 10.245 15.2504 10.655C15.3504 11.055 15.4904 11.405 15.6804 11.685C15.8704 11.965 16.1004 12.165 16.3704 12.315C16.6404 12.455 16.9504 12.525 17.3004 12.525C17.6504 12.525 17.9604 12.455 18.2304 12.315C18.5004 12.175 18.7304 11.965 18.9104 11.685C19.0904 11.405 19.2304 11.065 19.3304 10.655C19.4304 10.245 19.4704 9.775 19.4704 9.245V8.755C19.4704 8.225 19.4204 7.755 19.3304 7.345C19.2304 6.945 19.0904 6.605 18.9004 6.325Z" fill="#536254"/>
<path d="M8.98035 6.40497C8.77035 6.13497 8.51035 5.93497 8.20035 5.80497C7.89035 5.66497 7.54035 5.59497 7.14035 5.59497H6.11035V12.395H7.12035C7.66035 12.395 8.12035 12.275 8.49035 12.025C8.86035 11.775 9.14035 11.415 9.33035 10.945C9.52035 10.475 9.62035 9.89497 9.62035 9.22497V8.73497C9.62035 8.22497 9.56035 7.76497 9.45035 7.37497C9.34035 6.98497 9.19035 6.65497 8.97035 6.38497L8.98035 6.40497Z" fill="#536254"/>
<path d="M25.35 0.814941H4.03C1.81 0.814941 0 2.62494 0 4.84494V13.1449C0 15.3649 1.81 17.1749 4.03 17.1749H25.35C27.57 17.1749 29.38 15.3649 29.38 13.1449V4.84494C29.38 2.62494 27.57 0.814941 25.35 0.814941ZM11.71 9.23494C11.71 9.94494 11.6 10.5949 11.37 11.1849C11.15 11.7749 10.83 12.2749 10.43 12.7049C10.03 13.1249 9.54 13.4449 8.98 13.6749C8.42 13.9049 7.8 14.0149 7.12 14.0149H4.04V3.97494H7.14C7.81 3.97494 8.42 4.08494 8.98 4.31494C9.54 4.54494 10.03 4.86494 10.43 5.28494C10.84 5.70494 11.15 6.21494 11.37 6.80494C11.6 7.38494 11.71 8.03494 11.71 8.75494V9.23494ZM21.56 9.23494C21.56 9.99494 21.46 10.6849 21.25 11.2849C21.04 11.8949 20.75 12.4049 20.37 12.8349C19.99 13.2549 19.54 13.5849 19.02 13.8049C18.5 14.0349 17.92 14.1449 17.29 14.1449C16.66 14.1449 16.08 14.0349 15.56 13.8049C15.04 13.5749 14.59 13.2549 14.21 12.8349C13.83 12.4049 13.53 11.8949 13.32 11.2849C13.11 10.6749 13.01 9.99494 13.01 9.23494V8.75494C13.01 7.98494 13.11 7.30494 13.32 6.70494C13.53 6.09494 13.82 5.58494 14.2 5.15494C14.58 4.72494 15.03 4.40494 15.55 4.17494C16.07 3.94494 16.65 3.83494 17.28 3.83494C17.91 3.83494 18.49 3.94494 19.01 4.17494C19.53 4.40494 19.98 4.72494 20.36 5.15494C20.74 5.58494 21.04 6.09494 21.24 6.70494C21.45 7.30494 21.56 7.99494 21.56 8.75494V9.23494ZM25.35 14.0149H23.29V3.97494H25.35V14.0149Z" fill="#536254"/>
</g>
<defs>
<clipPath id="clip0_392_836">
<rect width="29.39" height="16.37" fill="white" transform="translate(0 0.814941)"/>
</clipPath>
</defs>
</svg>
