<svg width="30" height="30" viewBox="0 0 30 30" fill="none" xmlns="http://www.w3.org/2000/svg">
<path d="M0 2C0 0.89543 0.895431 0 2 0H28C29.1046 0 30 0.895431 30 2V28C30 29.1046 29.1046 30 28 30H2C0.89543 30 0 29.1046 0 28V2Z" fill="#E3FFE8"/>
<g clip-path="url(#clip0_325_7467)">
<path d="M8.62047 18.4825H5.11152V18.0653H5.81293V17.9256H5.95359V17.7859H6.09425V17.6462H6.23492V13.0454H6.09425V12.9057H5.95359V12.7659H5.67227V12.6262H5.39094V12.4865H5.10962V12.3468H5.67037V12.2071H6.09045V12.0674H6.6512V11.9277H7.21195V11.788H7.49327V12.9038H7.35261V13.3229H7.21195V13.8798H7.35261V13.6004H7.49327V13.321H7.63393V13.0416H7.7746V12.9019H7.91526V12.6225H8.05592V12.4828H8.19658V12.3431H8.33724V12.2034H8.47791V12.0636H8.75923V11.9239H9.04055V11.7842H10.164V11.9239H10.3046V12.0636H10.4453V12.2034H10.5859V12.3431H10.7266V13.0397H10.5859V13.3191H10.4453V13.4588H10.164V13.5985H9.6032V13.4588H9.32188V13.3191H9.18122V12.6225H9.46254V12.3431H8.90179V12.4828H8.62047V12.6225H8.47981V12.7622H8.33915V12.9019H8.19848V13.0416H8.05782V13.1813H7.91716V13.321H7.7765V13.6004H7.63583V13.8798H7.49517V17.5046H7.63583V17.784H7.7765V17.9237H7.91716V18.0634H8.61857V18.4806L8.62047 18.4825Z" fill="#1F1F1F"/>
<path d="M16.0583 17.229H15.9177V17.3687H15.777V17.6481H15.6363V17.7878H15.4957V17.9275H15.355V18.0672H15.2144V18.2069H14.933V18.3466H14.6517V18.4863H14.3704V18.626H13.247V18.4863H12.6862V18.3466H12.4049V18.2069H12.2643V18.0672H12.1236V17.9275H11.9829V17.7878H11.8423V17.6481H11.7016V17.5084H11.5609V17.229H11.4203V16.9495H11.2796V16.6701H11.139V15.9735H10.9983V14.9975H11.139V14.3008H11.2796V13.8836H11.4203V13.6042H11.5609V13.3248H11.7016V13.1851H11.8423V12.9057H11.9829V12.766H12.1236V12.6263H12.2643V12.4865H12.4049V12.3468H12.6862V12.2071H12.9676V12.0674H13.2489V11.9277H13.669V11.788H15.0718V11.9277H15.6325V12.0674H15.9139V12.2071H16.3339V12.0674H16.6153V11.9277H16.8966V11.788H17.1779V20.7102H17.3186V20.9897H17.4592V21.1294H17.5999V21.2691H18.3013V21.6863H14.7924V21.2691H15.4938V21.1294H15.6344V20.9897H15.7751V20.8499H15.9158V17.6443H16.0564V17.5046H16.1971V17.2252H16.3377V16.808H16.1971V17.0874H16.0564V17.2271L16.0583 17.229ZM14.6555 17.7859V17.6462H14.9368V17.5065H15.2182V17.3668H15.4995V17.2271H15.6401V17.0874H15.7808V16.808H15.9215V12.766H15.6401V12.6263H15.3588V12.4865H15.0775V12.3468H13.9541V12.4865H13.6728V12.6263H13.3914V12.766H13.2508V12.9057H13.1101V13.0454H12.9695V13.1851H12.8288V13.4645H12.6881V13.7439H12.5475V14.3008H12.4068V15.8338H12.5475V16.3907H12.6881V16.6701H12.8288V16.9495H12.9695V17.0893H13.1101V17.229H13.2508V17.3687H13.3914V17.5084H13.6728V17.6481H14.0929V17.7878H14.6536L14.6555 17.7859Z" fill="#1F1F1F"/>
<path d="M25.4542 16.1906H23.3309V22.5169H21.2077V24.6257H19.0845V22.5169H21.2077V16.1906H23.3309V14.0818H21.2077V7.75545H19.0845V5.64667H21.2077V7.75545H23.3309V14.0818H25.4542V16.1906Z" fill="#1F1F1F"/>
</g>
<defs>
<clipPath id="clip0_325_7467">
<rect x="5.08472" y="5.33899" width="20.339" height="19.0678" rx="2" fill="white"/>
</clipPath>
</defs>
</svg>
