<svg width="20" height="20" viewBox="0 0 20 20" fill="none" xmlns="http://www.w3.org/2000/svg">
<path d="M11.4545 8.425V7.15C11.8545 6.975 12.2636 6.84375 12.6818 6.75625C13.1 6.66875 13.5394 6.625 14 6.625C14.3152 6.625 14.6242 6.65 14.9273 6.7C15.2303 6.75 15.5273 6.8125 15.8182 6.8875V8.0875C15.5273 7.975 15.2333 7.89063 14.9364 7.83438C14.6394 7.77813 14.3273 7.75 14 7.75C13.5394 7.75 13.097 7.80938 12.6727 7.92813C12.2485 8.04688 11.8424 8.2125 11.4545 8.425ZM11.4545 12.55V11.275C11.8545 11.1 12.2636 10.9688 12.6818 10.8813C13.1 10.7938 13.5394 10.75 14 10.75C14.3152 10.75 14.6242 10.775 14.9273 10.825C15.2303 10.875 15.5273 10.9375 15.8182 11.0125V12.2125C15.5273 12.1 15.2333 12.0156 14.9364 11.9594C14.6394 11.9031 14.3273 11.875 14 11.875C13.5394 11.875 13.097 11.9313 12.6727 12.0438C12.2485 12.1562 11.8424 12.325 11.4545 12.55ZM11.4545 10.4875V9.2125C11.8545 9.0375 12.2636 8.90625 12.6818 8.81875C13.1 8.73125 13.5394 8.6875 14 8.6875C14.3152 8.6875 14.6242 8.7125 14.9273 8.7625C15.2303 8.8125 15.5273 8.875 15.8182 8.95V10.15C15.5273 10.0375 15.2333 9.95312 14.9364 9.89688C14.6394 9.84063 14.3273 9.8125 14 9.8125C13.5394 9.8125 13.097 9.87188 12.6727 9.99063C12.2485 10.1094 11.8424 10.275 11.4545 10.4875ZM6 13C6.5697 13 7.12424 13.0656 7.66364 13.1969C8.20303 13.3281 8.73939 13.525 9.27273 13.7875V6.4C8.77576 6.1 8.24848 5.875 7.69091 5.725C7.13333 5.575 6.5697 5.5 6 5.5C5.56364 5.5 5.1303 5.54375 4.7 5.63125C4.2697 5.71875 3.85455 5.85 3.45455 6.025V13.45C3.87879 13.3 4.3 13.1875 4.71818 13.1125C5.13636 13.0375 5.56364 13 6 13ZM10.7273 13.7875C11.2606 13.525 11.797 13.3281 12.3364 13.1969C12.8758 13.0656 13.4303 13 14 13C14.4364 13 14.8636 13.0375 15.2818 13.1125C15.7 13.1875 16.1212 13.3 16.5455 13.45V6.025C16.1455 5.85 15.7303 5.71875 15.3 5.63125C14.8697 5.54375 14.4364 5.5 14 5.5C13.4303 5.5 12.8667 5.575 12.3091 5.725C11.7515 5.875 11.2242 6.1 10.7273 6.4V13.7875ZM10 16C9.41818 15.525 8.78788 15.1562 8.10909 14.8938C7.4303 14.6313 6.72727 14.5 6 14.5C5.49091 14.5 4.99091 14.5688 4.5 14.7063C4.00909 14.8438 3.53939 15.0375 3.09091 15.2875C2.83636 15.425 2.59091 15.4188 2.35455 15.2688C2.11818 15.1188 2 14.9 2 14.6125V5.575C2 5.4375 2.03333 5.30625 2.1 5.18125C2.16667 5.05625 2.26667 4.9625 2.4 4.9C2.95758 4.6 3.53939 4.375 4.14545 4.225C4.75152 4.075 5.3697 4 6 4C6.70303 4 7.39091 4.09375 8.06364 4.28125C8.73636 4.46875 9.38182 4.75 10 5.125C10.6182 4.75 11.2636 4.46875 11.9364 4.28125C12.6091 4.09375 13.297 4 14 4C14.6303 4 15.2485 4.075 15.8545 4.225C16.4606 4.375 17.0424 4.6 17.6 4.9C17.7333 4.9625 17.8333 5.05625 17.9 5.18125C17.9667 5.30625 18 5.4375 18 5.575V14.6125C18 14.9 17.8818 15.1188 17.6455 15.2688C17.4091 15.4188 17.1636 15.425 16.9091 15.2875C16.4606 15.0375 15.9909 14.8438 15.5 14.7063C15.0091 14.5688 14.5091 14.5 14 14.5C13.2727 14.5 12.5697 14.6313 11.8909 14.8938C11.2121 15.1562 10.5818 15.525 10 16Z" fill="#1F1F1F"/>
</svg>
