<svg width="20" height="20" viewBox="0 0 20 20" fill="none" xmlns="http://www.w3.org/2000/svg">
<path d="M5.55556 7.3V5.5H18V7.3H5.55556ZM5.55556 10.9V9.1H18V10.9H5.55556ZM5.55556 14.5V12.7H18V14.5H5.55556ZM2.88889 7.3C2.63704 7.3 2.42593 7.21375 2.25556 7.04125C2.08519 6.86875 2 6.655 2 6.4C2 6.145 2.08519 5.93125 2.25556 5.75875C2.42593 5.58625 2.63704 5.5 2.88889 5.5C3.14074 5.5 3.35185 5.58625 3.52222 5.75875C3.69259 5.93125 3.77778 6.145 3.77778 6.4C3.77778 6.655 3.69259 6.86875 3.52222 7.04125C3.35185 7.21375 3.14074 7.3 2.88889 7.3ZM2.88889 10.9C2.63704 10.9 2.42593 10.8138 2.25556 10.6413C2.08519 10.4688 2 10.255 2 10C2 9.745 2.08519 9.53125 2.25556 9.35875C2.42593 9.18625 2.63704 9.1 2.88889 9.1C3.14074 9.1 3.35185 9.18625 3.52222 9.35875C3.69259 9.53125 3.77778 9.745 3.77778 10C3.77778 10.255 3.69259 10.4688 3.52222 10.6413C3.35185 10.8138 3.14074 10.9 2.88889 10.9ZM2.88889 14.5C2.63704 14.5 2.42593 14.4138 2.25556 14.2413C2.08519 14.0688 2 13.855 2 13.6C2 13.345 2.08519 13.1313 2.25556 12.9588C2.42593 12.7863 2.63704 12.7 2.88889 12.7C3.14074 12.7 3.35185 12.7863 3.52222 12.9588C3.69259 13.1313 3.77778 13.345 3.77778 13.6C3.77778 13.855 3.69259 14.0688 3.52222 14.2413C3.35185 14.4138 3.14074 14.5 2.88889 14.5Z" fill="#1F1F1F"/>
</svg>
