<?xml version="1.0" encoding="UTF-8"?>
<!DOCTYPE svg PUBLIC "-//W3C//DTD SVG 1.1//EN" "http://www.w3.org/Graphics/SVG/1.1/DTD/svg11.dtd">
<svg xmlns="http://www.w3.org/2000/svg" version="1.1" width="875px" height="863px" style="shape-rendering:geometricPrecision; text-rendering:geometricPrecision; image-rendering:optimizeQuality; fill-rule:evenodd; clip-rule:evenodd" xmlns:xlink="http://www.w3.org/1999/xlink">
<g><path style="opacity:1" fill="#01274c" d="M 778.5,181.5 C 778.427,183.027 779.094,184.027 780.5,184.5C 789.941,193.941 798.274,204.274 805.5,215.5C 805.427,217.027 806.094,218.027 807.5,218.5C 807.427,220.027 808.094,221.027 809.5,221.5C 809.427,223.027 810.094,224.027 811.5,224.5C 838.618,266.016 854.118,311.683 858,361.5C 861.761,430.027 849.095,495.36 820,557.5C 768.656,665.684 690.823,749.184 586.5,808C 513.923,846.983 436.923,860.316 355.5,848C 306.993,839.128 262.993,820.295 223.5,791.5C 223.027,790.094 222.027,789.427 220.5,789.5C 201.675,776.681 184.341,762.015 168.5,745.5C 168.027,744.094 167.027,743.427 165.5,743.5C 128.947,707.622 98.9474,666.955 75.5,621.5C 75.7148,619.821 75.0481,618.821 73.5,618.5C 46.9153,565.179 30.082,508.845 23,449.5C 16.1899,412.112 13.8566,374.445 16,336.5C 19.6656,293.001 33.1656,253.001 56.5,216.5C 57.9063,216.027 58.573,215.027 58.5,213.5C 61.0921,207.976 64.4254,202.976 68.5,198.5C 69.9063,198.027 70.573,197.027 70.5,195.5C 84.6434,174.684 100.643,155.351 118.5,137.5C 121.833,136.167 124.167,133.833 125.5,130.5C 130.44,127.23 134.773,123.23 138.5,118.5C 140.167,116.167 142.167,114.167 144.5,112.5C 147.089,111.581 149.089,109.914 150.5,107.5C 151.167,106.167 152.167,105.167 153.5,104.5C 155.749,103.92 157.415,102.587 158.5,100.5C 250.246,21.6411 355.913,-6.1922 475.5,17C 528.056,28.4072 578.056,46.7405 625.5,72C 673.439,97.2982 718.106,127.298 759.5,162C 766.036,168.369 772.369,174.869 778.5,181.5 Z"/></g>
<g><path style="opacity:1" fill="#5d708a" d="M 158.5,100.5 C 157.415,102.587 155.749,103.92 153.5,104.5C 154.585,102.413 156.251,101.08 158.5,100.5 Z"/></g>
<g><path style="opacity:1" fill="#5c6f89" d="M 150.5,107.5 C 149.089,109.914 147.089,111.581 144.5,112.5C 145.911,110.086 147.911,108.419 150.5,107.5 Z"/></g>
<g><path style="opacity:1" fill="#677a92" d="M 138.5,118.5 C 134.773,123.23 130.44,127.23 125.5,130.5C 129.227,125.77 133.56,121.77 138.5,118.5 Z"/></g>
<g><path style="opacity:1" fill="#71849a" d="M 125.5,130.5 C 124.167,133.833 121.833,136.167 118.5,137.5C 120.5,134.833 122.833,132.5 125.5,130.5 Z"/></g>
<g><path style="opacity:1" fill="#8495a8" d="M 778.5,181.5 C 779.906,181.973 780.573,182.973 780.5,184.5C 779.094,184.027 778.427,183.027 778.5,181.5 Z"/></g>
<g><path style="opacity:1" fill="#7b8da1" d="M 70.5,195.5 C 70.573,197.027 69.9063,198.027 68.5,198.5C 68.427,196.973 69.0937,195.973 70.5,195.5 Z"/></g>
<g><path style="opacity:1" fill="#8999ab" d="M 58.5,213.5 C 58.573,215.027 57.9063,216.027 56.5,216.5C 56.427,214.973 57.0937,213.973 58.5,213.5 Z"/></g>
<g><path style="opacity:1" fill="#8293a6" d="M 805.5,215.5 C 806.906,215.973 807.573,216.973 807.5,218.5C 806.094,218.027 805.427,217.027 805.5,215.5 Z"/></g>
<g><path style="opacity:1" fill="#8293a6" d="M 807.5,218.5 C 808.906,218.973 809.573,219.973 809.5,221.5C 808.094,221.027 807.427,220.027 807.5,218.5 Z"/></g>
<g><path style="opacity:1" fill="#8293a6" d="M 809.5,221.5 C 810.906,221.973 811.573,222.973 811.5,224.5C 810.094,224.027 809.427,223.027 809.5,221.5 Z"/></g>
<g><path style="opacity:1" fill="#fdfdfd" d="M 178.5,242.5 C 201.516,240.778 223.182,245.278 243.5,256C 267.434,274.085 278.934,298.251 278,328.5C 276.749,331.381 274.583,333.214 271.5,334C 261.151,334.832 250.817,334.666 240.5,333.5C 239.302,315.279 232.302,299.779 219.5,287C 199.433,275.161 179.767,275.828 160.5,289C 147.784,301.931 139.951,317.431 137,335.5C 132.36,366.823 132.36,398.156 137,429.5C 139.75,448.5 147.916,464.667 161.5,478C 173.752,487.04 187.419,490.04 202.5,487C 213.263,484.876 221.763,479.376 228,470.5C 235.598,458.972 239.431,446.305 239.5,432.5C 251.268,432.043 262.935,432.543 274.5,434C 277.886,436.869 279.219,440.536 278.5,445C 276.789,469.754 266.789,490.42 248.5,507C 227.211,520.728 203.877,526.061 178.5,523C 145.077,518.534 121.91,500.7 109,469.5C 98.247,441.725 93.4137,412.892 94.5,383C 93.8255,356.903 97.3255,331.403 105,306.5C 116.743,270.242 141.243,248.909 178.5,242.5 Z"/></g>
<g><path style="opacity:1" fill="#fefefe" d="M 541.5,319.5 C 540.501,386.998 540.167,454.665 540.5,522.5C 530.5,522.5 520.5,522.5 510.5,522.5C 507.888,521.723 506.055,520.056 505,517.5C 504.333,429.5 504.333,341.5 505,253.5C 506.41,250.211 508.91,248.544 512.5,248.5C 521.833,248.5 531.167,248.5 540.5,248.5C 540.173,253.214 540.507,257.88 541.5,262.5C 542.107,262.376 542.44,262.043 542.5,261.5C 563.744,244.482 587.744,238.982 614.5,245C 623.828,247.156 626.661,252.656 623,261.5C 618.167,267.667 613.333,273.833 608.5,280C 581.809,271.451 560.976,278.951 546,302.5C 543.369,307.888 541.869,313.555 541.5,319.5 Z"/></g>
<g><path style="opacity:1" fill="#fdfdfd" d="M 700.5,242.5 C 718.2,241.925 734.866,245.759 750.5,254C 755.923,257.419 760.756,261.585 765,266.5C 767.856,270.639 768.19,274.972 766,279.5C 760.806,285.605 755.14,291.272 749,296.5C 731.007,277.626 709.507,272.126 684.5,280C 665.353,290.133 657.853,305.967 662,327.5C 667.933,340.763 677.766,349.93 691.5,355C 705.951,361.059 720.284,367.392 734.5,374C 768.608,391.374 783.441,419.208 779,457.5C 771.869,492.631 750.703,513.797 715.5,521C 695.887,524.971 676.554,523.971 657.5,518C 640.52,511.678 628.02,500.512 620,484.5C 619.333,482.833 619.333,481.167 620,479.5C 625.867,473.056 632.2,467.056 639,461.5C 649.38,473.937 662.213,482.77 677.5,488C 696.604,492.182 713.937,488.516 729.5,477C 741.072,464.208 744.572,449.375 740,432.5C 736.72,424.222 731.553,417.389 724.5,412C 703.442,401.138 682.109,390.805 660.5,381C 631.298,363.42 619.131,337.587 624,303.5C 632.15,270.482 652.983,250.649 686.5,244C 691.351,243.826 696.018,243.326 700.5,242.5 Z"/></g>
<g><path style="opacity:1" fill="#fdfdfd" d="M 464.5,523.5 C 455.167,523.5 445.833,523.5 436.5,523.5C 436.832,456.331 436.499,389.331 435.5,322.5C 433.058,298.55 420.058,283.717 396.5,278C 368.707,275.793 350.54,287.96 342,314.5C 341.5,384.166 341.333,453.833 341.5,523.5C 331.161,523.666 320.828,523.5 310.5,523C 307.667,522.167 305.833,520.333 305,517.5C 304.333,429.833 304.333,342.167 305,254.5C 306.167,252 308,250.167 310.5,249C 320.828,248.5 331.161,248.334 341.5,248.5C 341.334,253.179 341.501,257.845 342,262.5C 376.961,235.772 411.794,235.939 446.5,263C 460.094,276.018 468.594,291.851 472,310.5C 472.667,379.5 472.667,448.5 472,517.5C 470.744,521.046 468.244,523.046 464.5,523.5 Z"/></g>
<g><path style="opacity:1" fill="#7a8098" d="M 512.5,248.5 C 521.986,247.506 531.652,247.173 541.5,247.5C 541.181,252.363 541.514,257.03 542.5,261.5C 542.44,262.043 542.107,262.376 541.5,262.5C 540.507,257.88 540.173,253.214 540.5,248.5C 531.167,248.5 521.833,248.5 512.5,248.5 Z"/></g>
<g><path style="opacity:1" fill="#737993" d="M 541.5,319.5 C 541.5,387.5 541.5,455.5 541.5,523.5C 530.986,523.828 520.653,523.494 510.5,522.5C 520.5,522.5 530.5,522.5 540.5,522.5C 540.167,454.665 540.501,386.998 541.5,319.5 Z"/></g>
<g><path style="opacity:1" fill="#868ba2" d="M 435.5,322.5 C 436.499,389.331 436.832,456.331 436.5,523.5C 445.833,523.5 455.167,523.5 464.5,523.5C 455.014,524.494 445.348,524.827 435.5,524.5C 435.5,457.167 435.5,389.833 435.5,322.5 Z"/></g>
<g><path style="opacity:1" fill="#7c8ba0" d="M 73.5,618.5 C 75.0481,618.821 75.7148,619.821 75.5,621.5C 74.5987,620.71 73.9321,619.71 73.5,618.5 Z"/></g>
<g><path style="opacity:1" fill="#8495a8" d="M 165.5,743.5 C 167.027,743.427 168.027,744.094 168.5,745.5C 166.973,745.573 165.973,744.906 165.5,743.5 Z"/></g>
<g><path style="opacity:1" fill="#7b8da1" d="M 220.5,789.5 C 222.027,789.427 223.027,790.094 223.5,791.5C 221.973,791.573 220.973,790.906 220.5,789.5 Z"/></g>
</svg>
