<?xml version="1.0" encoding="UTF-8"?>
<svg id="uuid-824210dc-fc5e-4e5e-bfad-0898c59f0c8c" data-name="Mode_Isolation" xmlns="http://www.w3.org/2000/svg" viewBox="0 0 206.45 206.45">
  <defs>
    <style>
      .uuid-2a67278a-dd93-42dd-b63a-cdc11586e485 {
        fill: #fff;
      }
    </style>
  </defs>
  <path class="uuid-2a67278a-dd93-42dd-b63a-cdc11586e485" d="M68.18,120.27h-18.46v-2.21h3.69v-.74h.74v-.74h.74v-.74h.74v-24.37h-.74v-.74h-.74v-.74h-1.48v-.74h-1.48v-.74h-1.48v-.74h2.95v-.74h2.21v-.74h2.95v-.74h2.95v-.74h1.48v5.91h-.74v2.22h-.74v2.95h.74v-1.48h.74v-1.48h.74v-1.48h.74v-.74h.74v-1.48h.74v-.74h.74v-.74h.74v-.74h.74v-.74h1.48v-.74h1.48v-.74h5.91v.74h.74v.74h.74v.74h.74v.74h.74v3.69h-.74v1.48h-.74v.74h-1.48v.74h-2.95v-.74h-1.48v-.74h-.74v-3.69h1.48v-1.48h-2.95v.74h-1.48v.74h-.74v.74h-.74v.74h-.74v.74h-.74v.74h-.74v.74h-.74v1.48h-.74v1.48h-.74v19.2h.74v1.48h.74v.74h.74v.74h3.69v2.21Z"/>
  <path class="uuid-2a67278a-dd93-42dd-b63a-cdc11586e485" d="M107.31,113.63h-.74v.74h-.74v1.48h-.74v.74h-.74v.74h-.74v.74h-.74v.74h-1.48v.74h-1.48v.74h-1.48v.74h-5.91v-.74h-2.95v-.74h-1.48v-.74h-.74v-.74h-.74v-.74h-.74v-.74h-.74v-.74h-.74v-.74h-.74v-1.48h-.74v-1.48h-.74v-1.48h-.74v-3.69h-.74v-5.17h.74v-3.69h.74v-2.21h.74v-1.48h.74v-1.48h.74v-.74h.74v-1.48h.74v-.74h.74v-.74h.74v-.74h.74v-.74h1.48v-.74h1.48v-.74h1.48v-.74h2.21v-.74h7.38v.74h2.95v.74h1.48v.74h2.21v-.74h1.48v-.74h1.48v-.74h1.48v47.26h.74v1.48h.74v.74h.74v.74h3.69v2.21h-18.46v-2.21h3.69v-.74h.74v-.74h.74v-.74h.74v-16.98h.74v-.74h.74v-1.48h.74v-2.21h-.74v1.48h-.74v.74ZM99.93,116.58v-.74h1.48v-.74h1.48v-.74h1.48v-.74h.74v-.74h.74v-1.48h.74v-21.41h-1.48v-.74h-1.48v-.74h-1.48v-.74h-5.91v.74h-1.48v.74h-1.48v.74h-.74v.74h-.74v.74h-.74v.74h-.74v1.48h-.74v1.48h-.74v2.95h-.74v8.12h.74v2.95h.74v1.48h.74v1.48h.74v.74h.74v.74h.74v.74h.74v.74h1.48v.74h2.21v.74h2.95Z"/>
  <path class="uuid-2a67278a-dd93-42dd-b63a-cdc11586e485" d="M156.73,108.13h-11.17v33.51h-11.17v11.17h-11.17v-11.17h11.17v-33.51h11.17v-11.17h-11.17v-33.51h-11.17v-11.17h11.17v11.17h11.17v33.51h11.17v11.17Z"/>
</svg>